<?xml version="1.0" standalone="no"?>
<!DOCTYPE svg PUBLIC "-//W3C//DTD SVG 20010904//EN"
 "http://www.w3.org/TR/2001/REC-SVG-20010904/DTD/svg10.dtd">
<svg version="1.0" xmlns="http://www.w3.org/2000/svg"
 width="1804.000000pt" height="1804.000000pt" viewBox="0 0 1804.000000 1804.000000"
 preserveAspectRatio="xMidYMid meet">
<metadata>
Created by potrace 1.14, written by Peter Selinger 2001-2017
</metadata>
<g transform="translate(0.000000,1804.000000) scale(0.100000,-0.100000)"
fill="#000000" stroke="none">
<path d="M7665 15390 c-2 -3 -29 -89 -60 -190 -81 -270 -115 -383 -120 -400
-2 -8 -49 -163 -105 -345 -55 -181 -132 -433 -171 -560 -39 -126 -74 -241 -79
-255 -5 -14 -18 -59 -30 -100 -22 -75 -35 -118 -175 -575 -42 -137 -78 -257
-80 -265 -2 -8 -10 -35 -18 -60 -8 -25 -25 -79 -37 -120 -12 -41 -28 -93 -35
-115 -8 -22 -26 -80 -40 -130 -15 -49 -43 -139 -62 -200 l-35 -110 0 -785 c0
-432 1 -801 1 -820 l1 -35 2357 2 c1297 1 2376 2 2399 2 l41 1 0 918 c1 700
-2 926 -12 957 -7 22 -18 60 -25 85 -7 25 -18 63 -25 85 -23 70 -47 149 -60
195 -7 25 -50 164 -95 310 -45 146 -85 279 -90 295 -5 17 -17 59 -28 95 -11
36 -52 169 -90 295 -39 127 -86 282 -105 345 -183 596 -221 721 -232 760 -7
25 -57 187 -110 360 -53 173 -100 326 -104 340 l-7 25 -1383 0 c-761 0 -1384
-2 -1386 -5z"/>
<path d="M17 15321 c8 -25 19 -59 23 -76 4 -16 15 -49 24 -73 8 -23 15 -45 15
-47 0 -9 33 -117 47 -158 8 -20 18 -54 23 -75 5 -20 28 -98 51 -172 57 -182
74 -238 109 -355 16 -55 44 -145 61 -200 17 -55 33 -107 35 -115 2 -8 24 -82
50 -165 55 -177 184 -603 190 -625 2 -8 45 -148 95 -310 50 -162 93 -302 95
-310 2 -8 20 -67 40 -130 20 -63 38 -124 40 -134 3 -11 16 -54 29 -95 14 -42
38 -121 55 -176 77 -255 143 -474 191 -630 29 -93 85 -278 125 -410 40 -132
99 -323 130 -425 31 -102 63 -205 70 -230 7 -25 54 -180 105 -345 50 -165 107
-349 125 -410 104 -341 265 -867 321 -1050 36 -115 66 -217 68 -225 4 -13 111
-366 136 -445 11 -36 69 -224 140 -460 29 -93 65 -213 81 -265 17 -52 32 -102
34 -110 2 -8 28 -96 59 -195 30 -99 87 -286 126 -415 39 -129 85 -279 101
-332 17 -54 31 -101 31 -105 0 -5 5 -19 10 -33 5 -14 11 -32 13 -40 3 -8 25
-82 51 -165 25 -82 55 -178 65 -212 10 -35 28 -93 40 -130 11 -38 22 -75 24
-83 2 -8 17 -60 34 -115 52 -165 98 -313 139 -450 83 -273 107 -350 212 -695
23 -74 50 -164 62 -200 11 -36 21 -69 22 -75 1 -5 14 -48 29 -95 39 -128 211
-690 274 -900 30 -102 59 -193 64 -202 7 -14 22 -17 77 -15 l67 2 2 5260 c2
5541 3 5257 -37 5400 -4 17 -15 55 -24 85 -8 30 -31 114 -51 185 -20 72 -38
137 -40 145 -2 8 -27 98 -55 200 -62 224 -100 360 -105 380 -5 22 -143 518
-155 560 -5 19 -28 100 -50 180 -22 80 -49 179 -61 220 -11 41 -23 82 -25 91
-4 16 -138 17 -1713 17 l-1708 0 14 -47z"/>
<path d="M14666 15316 c-8 -28 -22 -76 -30 -106 -7 -30 -44 -163 -81 -294 -37
-132 -68 -247 -70 -255 -2 -9 -15 -56 -29 -106 -39 -134 -259 -932 -317 -1145
-51 -188 -86 -311 -116 -410 -16 -51 -17 -417 -17 -5206 l-1 -5150 72 -1 c65
-2 72 0 78 20 10 32 7 22 89 290 41 136 78 251 80 256 3 4 7 18 10 32 3 13 23
83 45 154 22 72 76 249 121 395 45 146 83 272 85 280 2 8 8 29 13 45 6 17 58
188 116 380 59 193 111 364 116 380 6 17 21 66 34 110 28 92 81 263 127 415
18 58 34 110 35 115 2 10 49 165 101 330 14 44 29 96 35 115 5 19 53 175 105
345 52 171 96 315 97 320 1 6 13 44 26 85 13 41 25 80 26 85 3 11 116 384 140
459 8 26 56 182 105 345 50 163 106 348 126 411 19 63 41 135 48 160 7 25 24
81 38 125 14 44 55 177 90 295 36 118 125 409 197 645 72 237 147 482 166 545
19 63 43 142 54 175 10 33 49 159 85 280 36 121 70 231 76 245 5 14 11 34 13
45 3 11 34 117 71 235 36 118 77 251 90 295 13 44 45 148 71 230 25 83 50 164
54 180 7 27 126 414 150 490 19 58 62 200 65 215 2 8 24 80 48 160 25 80 93
300 151 490 58 190 148 487 201 660 53 173 101 331 107 350 5 19 52 175 105
345 52 171 108 355 124 410 17 55 39 127 49 160 24 74 101 326 104 340 2 10
47 153 72 233 8 23 14 44 14 46 0 2 -754 4 -1675 4 l-1674 0 -15 -52z"/>
<path d="M6619 7706 c-1 -14 -1 -5038 0 -5049 1 -5 17 -7 38 -5 l36 3 49 155
c27 85 73 229 102 320 30 91 77 239 106 330 28 91 58 183 65 205 8 22 30 92
50 155 20 63 69 219 110 345 40 127 124 388 185 580 61 193 130 406 152 475
22 69 44 139 48 155 5 17 26 84 48 150 22 66 65 201 97 300 79 251 109 346
252 790 184 576 194 607 204 642 5 17 36 114 69 215 33 100 63 197 66 214 l6
31 -841 0 c-599 0 -841 -3 -842 -11z"/>
<path d="M9717 7713 c-2 -2 9 -40 24 -86 33 -96 170 -517 173 -532 1 -5 16
-53 33 -105 31 -95 167 -521 204 -635 10 -33 36 -114 58 -180 47 -145 95 -293
196 -610 109 -339 168 -523 235 -730 32 -99 97 -299 143 -445 213 -665 250
-778 264 -820 8 -25 17 -54 19 -65 2 -11 8 -29 13 -40 5 -11 19 -51 31 -90 12
-38 62 -196 112 -350 49 -154 97 -301 105 -327 15 -46 17 -48 53 -48 l37 0 -1
2533 -1 2532 -847 1 c-467 0 -849 -1 -851 -3z"/>
</g>
</svg>
